<?xml version="1.0" encoding="utf-8"?>
<!-- Generator: Adobe Illustrator 19.2.1, SVG Export Plug-In . SVG Version: 6.00 Build 0)  -->
<svg version="1.1" id="Layer_1" xmlns="http://www.w3.org/2000/svg" xmlns:xlink="http://www.w3.org/1999/xlink" x="0px" y="0px"
	 viewBox="0 0 595.3 345.7" style="enable-background:new 0 0 595.3 345.7;" xml:space="preserve">
<style type="text/css">
	.st0{fill-rule:evenodd;clip-rule:evenodd;fill:#244180;}
	.st1{fill-rule:evenodd;clip-rule:evenodd;fill:#24934A;}
	.st2{fill-rule:evenodd;clip-rule:evenodd;fill:#FFFFFF;}
	.st3{fill:#010101;}
	.st4{fill:#1C984C;}
	.st5{fill-rule:evenodd;clip-rule:evenodd;fill:#FECC30;}
	.st6{fill:none;stroke:#EB212E;stroke-miterlimit:10;}
</style>
<path class="st0" d="M157.9,37.7l3.1-1.4c5.6-2.6,12.1-3.4,18.2-3.4c13.3,0,25.5,10.6,33.6,20.1l3.9,4.4
	c23.5,3.4,47.2,12.9,56.8,36.3c5.8,14.1,4.7,28.4,2,43.2c-0.3,1.4-0.5,2.8-0.7,4.2c-0.5,2.9-1.1,5.7-1.7,8.6
	c-1.2,6-2.4,11.9-3.6,17.9c-3.5,17.3-7.1,34.6-10.6,52c-5.3,25.8-10.8,51.7-15.9,77.5c-0.1,0.6-0.2,1.1-0.3,1.7
	c-1.4,7.5-3.3,14-9.4,19.2c-6.8,5.7-16.2,7.1-24.8,7.1c-9.2,0-19.5-2-25.1-10c-3.1-4.4-4.3-10.5-2.9-15.8l7.6-68.4
	c0.6-5.3,0.9-13.8-3.9-17.4c-3.4-2.5-9-2.8-13.1-2.7l-2.3,0.1l-0.2-0.1l-4.5,0.7c-7.3,1.1-14.4,3.2-21.4,5.5l-3.1,1l-7.1-1.7
	c-9.8-2.3-15.9-8.8-18.5-17.5c-1.4-4.7-1.9-10.2-1.4-16.5c0.1-0.6,0.2-2.1,0.1-2.8c-1.3-0.8-5.2-1.7-6.5-2
	c-11-2.6-19.5-5.3-26.5-14.7c-11.9-15.9-7.4-42.9-2.3-61C81.3,87.1,89,67.6,98.9,55.7c6.8-8.2,15-15.4,25.1-19.2
	c7.6-2.8,15-3.3,23-2.4C150.5,34.6,154.4,36.1,157.9,37.7L157.9,37.7z M157.7,44.1l5.6-2.6c4.8-2.2,10.5-2.8,15.7-2.8
	c11.3,0,22.3,10,29.3,18.1l5.3,6.1C235.7,65.7,259,74,268,96c5.4,13,4.2,26.4,1.6,39.9c-0.3,1.5-0.5,2.9-0.7,4.4
	c-0.4,2.8-1.1,5.6-1.6,8.4c-1.2,5.9-2.4,11.9-3.6,17.9c-3.5,17.3-7.1,34.6-10.6,51.9c-5.3,25.9-10.8,51.7-16,77.6
	c-0.1,0.6-0.2,1.1-0.3,1.7c-1.1,6-2.5,11.6-7.4,15.7c-5.6,4.7-13.9,5.7-20.9,5.7c-7.1,0-16-1.3-20.4-7.5c-2.2-3.1-3-7.6-1.9-11.3
	l7.7-68.9c0.8-7.7,0.6-17.7-6.2-22.7c-4.6-3.4-11.2-4-16.8-3.8l-1.1,0l-0.5-0.2l-6,0.9c-7.6,1.2-15.1,3.3-22.4,5.7l-1.6,0.5
	l-5.4-1.3c-8.9-2-13.8-7.8-14.9-15.6c-0.8-5.9-1-2.1-0.6-12c0.3-2.6,0.4-5.9-1.7-7.8c-2.1-1.8-6.5-2.7-9.2-3.4
	c-9.4-2.2-17.1-4.3-23.2-12.5c-10.6-14.2-5.9-40-1.4-55.9c3.9-13.7,11.4-32.9,20.6-44c6.1-7.3,13.5-14,22.6-17.4
	c6.7-2.5,13.2-2.8,20.2-2C149.3,40.4,153.4,42,157.7,44.1L157.7,44.1z"/>
<path class="st1" d="M179,44.6c-6.6,0-10.8,1.1-13.2,2.3c7.3,4.2,14.8,9.2,20.1,13c6.3,0.1,12.3,0.3,18,0.8
	C197.6,53.5,187.8,44.6,179,44.6L179,44.6z"/>
<path class="st1" d="M135.1,204.9l3.8,0.9c6.5-2.1,14.9-4.7,23.3-5.9c-1.7-1.3-3.4-3-5.1-5.3c-4.5-6.2-9-17.9-5.1-38.5
	c-3.6-1.2-6.3-4.2-8.2-9.1c-0.4-1.1,0.2-2.5,1.4-3.1c1.2-0.6,2.5-0.3,2.9,0.8c1.7,4.5,4.2,7,7.4,7.3c5.2,0.5,10.9-4.6,11-4.7
	c1-0.9,2.5-1,3.2-0.2s0.6,2.3-0.5,3.2c-0.3,0.3-6.3,5.7-12.9,6.1c-2.7,14.8-1.2,26.8,4.5,34.7c3.9,5.5,8.6,7.4,9.6,7.8
	c7.7-0.3,15,0.9,20.5,4.9c7.2,5.3,10.1,14.7,8.6,28l-7.7,69.1c0,0.3-0.1,0.4-0.1,0.7c-0.1,0.1-1,3.5,1.1,6.4c2.3,3.3,7.7,5,15.6,5
	c8,0,13.7-1.4,17.1-4.3c3.6-3.1,4.5-7.7,5.3-12.3c0.1-0.6,0.2-1.2,0.3-1.8c1.7-8.7,30.7-149.9,31.8-155.5c0.1-1.2,0.4-2.7,0.8-4.6
	c3.1-16.5,10.8-57.2-52.8-66.3c-0.1,0-0.2,0-0.3-0.1c-5-0.7-10.5-1.2-16.5-1.5c0.1,0.9-0.2,2-0.9,2.9c-1.3,1.6-3.5,2-4.9,1
	c-1.5-1.1-3.5-2.6-5.8-4.2h-0.1c-1.4,0-2.4-0.8-2.7-2c-11.2-7.8-27.4-18-34.3-18.8c-11-1.3-23.1,0-37.6,17.3
	c-14.4,17.3-32.6,72.2-19,92.6c5.9,7,13.3,8.8,19.9,10.3c8.3,2,16.9,4,15.2,17.5l0.1-0.1C122.9,197.2,127.9,202.5,135.1,204.9
	L135.1,204.9z"/>
<path class="st2" d="M205.3,101.7c0,0-1.8,0.9-2.4-1c-0.7-1.9,2.3-2.2,2.3-2.2s27-8.7,38.1,8.5c1.4,3.2-3.3,5.3-3.3,5.3
	s-2.7,1.7-4.7-1.8C233.2,107,222.6,97.2,205.3,101.7L205.3,101.7z"/>
<path class="st0" d="M192.8,138.3c-1.3,6.4,2.9,11.2,10.3,12.6c7.1,1,15.8-1.3,17.6-10.5c1.9-9.3-5.2-15.8-12.3-15.8
	C201.3,124.5,192.8,129.8,192.8,138.3L192.8,138.3z"/>
<path class="st2" d="M192.8,138.3c-1.3,6.4,3.4,11.6,10.5,11.6c7.1,0,13.5-3.1,14.8-9.6c1.3-6.5-3-13.8-10.1-13.8
	C200.9,126.6,194.6,129.4,192.8,138.3L192.8,138.3z"/>
<path class="st0" d="M192.6,140.2c0,0,3.3-10.9,11.7-10.9c6.8-0.2,6.5,4.6,6.5,4.6l-6.2,3.3l4.5,3.5c0,0-6.4,9.4-14.7,5.3
	C192.4,143.4,192.6,140.2,192.6,140.2L192.6,140.2z"/>
<path class="st3" d="M318.4,140.1c3.9,0,7.5-1.6,10.8-4.9c3.3-3.2,5.5-7.5,6.7-12.6c2.9-13.2-0.2-19.8-9.3-19.8
	c-9.3,0-15.3,6.3-18,18.8c-1.2,5.5-0.9,9.9,1,13.3C311.4,138.4,314.3,140.1,318.4,140.1L318.4,140.1z M329.3,151.6l1.5-7.5
	c-5,6-11.4,9.1-19,9.1c-3.9,0-7.3-0.7-10.2-2.2c-2.9-1.5-5.2-3.7-6.9-6.5c-1.7-2.8-2.8-6.3-3.2-10.3c-0.5-4.1-0.1-8.6,1-13.8
	c1-4.6,2.5-8.9,4.4-12.7c2-3.9,4.3-7.2,7.1-10c2.7-2.8,5.9-5,9.3-6.5c3.4-1.5,7.1-2.3,11.1-2.3c7.5,0,12.9,3.2,16.1,9.6l6.5-30.3
	h15.9l-18,83.4H329.3z M394.9,121.7c-1,0.8-2.3,1.5-4,2s-4.1,1-7.2,1.6c-4.8,0.9-8.3,2.1-10.3,3.5c-2.1,1.4-3.3,3.4-3.9,6.1
	c-1,4.5,1.1,6.8,6.3,6.8c2.1,0,4.1-0.3,6-1.1c1.9-0.7,3.7-1.7,5.2-2.9c1.5-1.2,2.9-2.6,4-4.2c1.1-1.6,1.9-3.3,2.3-5.1L394.9,121.7z
	 M389.6,151.6c-0.2-1.6-0.1-3.4,0.2-5.5c-2.4,2.2-5.3,3.9-8.7,5.2c-3.4,1.3-7.2,1.9-11.4,1.9c-7,0-11.8-1.5-14.4-4.7
	c-2.6-3.1-3.4-7.1-2.3-12.1c1-4.4,2.4-7.9,4.4-10.5c2-2.6,4.3-4.7,7.1-6.1c2.8-1.5,6-2.6,9.6-3.3c3.6-0.7,7.5-1.3,11.7-1.9
	c4.2-0.6,7.1-1.3,8.7-2.3c1.6-0.9,2.7-2.5,3.1-4.7c0.4-2-0.2-3.5-1.8-4.7c-1.6-1.1-4-1.7-7.1-1.7c-3.7,0-6.6,0.8-8.6,2.5
	c-2,1.7-3.5,3.8-4.5,6.6h-15c0.8-3.1,1.9-6.1,3.4-8.7c1.5-2.7,3.5-4.9,6.1-6.8c2.5-1.9,5.6-3.4,9.2-4.4c3.6-1.1,7.9-1.6,12.8-1.6
	c4.8,0,8.8,0.5,11.9,1.6c3.1,1.1,5.5,2.6,7.1,4.7c1.6,2,2.5,4.5,2.8,7.6c0.3,3,0,6.4-0.9,10.2l-8.3,38.6H389.6z M411.1,151.6
	l13.2-61h15.2l-1.6,7.3c1.8-2.1,3.5-3.7,5.2-4.8c1.7-1.2,3.4-2.1,5.1-2.7c1.7-0.6,3.3-1,4.9-1.2c1.6-0.2,3.2-0.3,4.9-0.3h2.1
	l-3.6,16.5c-1.4-0.3-2.9-0.4-4.4-0.4c-9.9,0-15.9,4.9-18,14.8l-6.9,31.8H411.1z M487.8,151.6l-7.5-27.4l-9.6,8.1l-4.2,19.4h-16.3
	l18-83.4h16.3l-9.8,45.5l25.1-23.2h19.8L494.2,113l11.7,38.6H487.8z"/>
<path class="st3" d="M302.5,292h-34.1l-2.6,12.4h-7.2l6.9-33.5h7.2l-2.6,12.5h34.1L302.5,292z M304.9,251.7c0.3-1.5,0.3-3,0.1-4.3
	c-0.3-1.4-0.9-2.6-1.8-3.6c-0.9-1-2.2-1.8-3.9-2.4c-1.7-0.6-3.7-0.9-6.1-0.9c-4.9,0-8.8,1-11.7,2.9c-2.9,1.9-4.8,4.7-5.5,8.3
	c-0.8,3.7-0.1,6.5,2.1,8.4c2.1,1.9,5.6,2.9,10.5,2.9s8.7-1,11.4-2.9C302.5,258.1,304.2,255.3,304.9,251.7L304.9,251.7z M312.3,251.7
	c-1.3,6.4-4.2,11.3-8.7,14.7c-4.4,3.4-10.2,5.1-17.2,5.1c-3.5,0-6.5-0.4-9.1-1.3c-2.6-0.9-4.7-2.1-6.3-3.9c-1.6-1.7-2.6-3.8-3.1-6.2
	c-0.5-2.5-0.4-5.3,0.2-8.5c0.7-3.1,1.7-5.9,3.3-8.4c1.5-2.5,3.5-4.5,5.7-6.2s4.9-2.9,7.9-3.8c3-0.9,6.2-1.3,9.8-1.3
	c7.1,0,12.2,1.7,15.1,5.1C312.8,240.4,313.6,245.3,312.3,251.7L312.3,251.7z M279.2,205.2l1.8-8.8h27.6c5,0,8.5,1.5,10.4,4.4
	c1.9,2.9,2.4,7.1,1.2,12.6c-1,5-3.1,9-6.1,11.9c-3,2.9-7,4.4-12,4.4h-28.1l1.8-8.8h27.3c2.6,0,4.7-0.7,6.5-1.9
	c1.8-1.3,2.9-3.1,3.4-5.5c1.1-5.5-1-8.3-6.3-8.3H279.2z M290.5,185.2h11l2.2-10.8c0.5-2.3,0.3-3.9-0.5-4.9c-0.9-1-2.1-1.5-3.6-1.5
	c-1.6,0-3,0.5-4.3,1.4c-1.2,0.9-2.1,2.5-2.5,4.7L290.5,185.2z M327.9,169.5h-10.6c-2,0-3.5,0.5-4.5,1.4c-1,0.9-1.8,2.6-2.3,5.1
	l-1.9,9.2h16.2l-1.7,8.4h-41.3l4.3-21c0.4-1.9,1.1-3.6,2-5.2c0.9-1.6,2-2.9,3.3-4c1.3-1.1,2.7-2,4.3-2.6c1.6-0.6,3.3-0.9,4.9-0.9
	c2.3,0,4.1,0.5,5.6,1.6c1.5,1.1,2.4,2.6,2.7,4.6c0.9-1.8,2.1-3.1,3.5-3.9c1.3-0.8,3.2-1.1,5.6-1.1h11.7L327.9,169.5z"/>
<path class="st4" d="M390.9,211.4l6.9-32.1c0.7-3.2,0.5-5.9-0.6-7.9c-1.1-2-2.9-3-5.4-3c-2.6,0-5,1.1-7.1,3.2
	c-2.1,2.2-3.6,4.9-4.3,8.1l-6.8,31.7h-14l6.9-31.9c0.5-2.2,0.7-3.9,0.7-5.3c0-1.4-0.3-2.5-0.8-3.2c-0.5-0.8-1.3-1.3-2.3-1.7
	c-1-0.3-2.3-0.5-3.8-0.5c-5.7,0-9.3,3.5-10.8,10.3l-6.9,32.2h-14l11.5-53h13.2l-1.7,7.7c2.6-3.5,5.3-5.9,8-7.2
	c2.8-1.3,5.9-1.9,9.5-1.9c1.8,0,3.3,0.2,4.7,0.5s2.5,0.8,3.5,1.4c1,0.7,1.8,1.6,2.6,2.7c0.8,1.1,1.5,2.4,2.2,3.9
	c2.1-2.9,4.4-5.1,7.1-6.4c2.7-1.3,5.7-2,9.1-2c2.7,0,5,0.5,7,1.4c2,0.9,3.7,2.1,4.9,3.8c1.2,1.6,2.1,3.5,2.5,5.7
	c0.4,2.1,0.4,4.4-0.1,6.9l-8,36.7H390.9z M410.5,211.4l11.5-53h14l-11.4,53H410.5z M423.4,152l2.8-13h14l-2.8,13H423.4z
	 M430.5,211.4l11.5-53h13.2l-1.4,6.3c1.5-1.8,3-3.2,4.5-4.2c1.5-1,2.9-1.8,4.4-2.3c1.5-0.5,2.9-0.9,4.3-1c1.4-0.1,2.8-0.2,4.3-0.2
	h1.8l-3.1,14.3c-1.3-0.2-2.5-0.3-3.8-0.3c-8.6,0-13.8,4.3-15.6,12.8l-6,27.6H430.5z M502.3,185.4c-0.9,0.7-2.1,1.3-3.5,1.7
	c-1.5,0.4-3.5,0.9-6.2,1.4c-4.2,0.8-7.2,1.8-9,3c-1.8,1.2-2.9,3-3.4,5.3c-0.9,3.9,1,5.9,5.5,5.9c1.8,0,3.5-0.3,5.2-0.9
	c1.7-0.6,3.2-1.4,4.5-2.5c1.3-1,2.5-2.3,3.5-3.7c1-1.4,1.7-2.9,2-4.5L502.3,185.4z M497.7,211.4c-0.1-1.4-0.1-2.9,0.2-4.7
	c-2.1,1.9-4.6,3.3-7.6,4.5c-3,1.1-6.3,1.7-9.8,1.7c-6.1,0-10.3-1.3-12.6-4.1c-2.3-2.7-2.9-6.2-2-10.5c0.8-3.8,2.1-6.9,3.8-9.1
	c1.7-2.3,3.8-4,6.2-5.3c2.4-1.3,5.2-2.2,8.3-2.9c3.1-0.6,6.5-1.1,10.1-1.7c3.6-0.5,6.1-1.2,7.6-2c1.4-0.8,2.3-2.2,2.7-4
	c0.4-1.7-0.1-3.1-1.5-4.1c-1.4-0.9-3.5-1.4-6.2-1.4c-3.2,0-5.7,0.7-7.4,2.1s-3,3.3-3.9,5.7h-13c0.7-2.7,1.6-5.3,3-7.5
	c1.3-2.3,3.1-4.3,5.3-5.9c2.2-1.6,4.9-2.9,8-3.8c3.1-0.9,6.8-1.4,11.1-1.4c4.2,0,7.6,0.5,10.3,1.4c2.7,0.9,4.7,2.3,6.1,4
	c1.4,1.7,2.2,3.9,2.4,6.6c0.2,2.6,0,5.6-0.7,8.9l-7.2,33.5H497.7z"/>
<path class="st5" d="M353.4,232.9c6.7,0,11.2,1.2,13.4,3.7c2.2,2.5,2.8,6.7,1.6,12.7c-1.2,6.3-3.6,10.7-7.1,13.4
	c-3.5,2.7-8.8,4-15.9,4h-10.8l6.6-33.9H353.4z M310.4,301.1H328l4.2-21.5h15.2c6.7,0,12.2-0.7,16.5-2.1c4.3-1.4,8.2-3.7,11.8-7.1
	c2.9-2.7,5.3-5.7,7.2-9c1.8-3.3,3.1-6.9,3.9-10.8c1.9-9.6,0.5-17.1-4.2-22.4c-4.7-5.4-12.2-8.1-22.4-8.1h-34L310.4,301.1z
	 M399.7,198.6h17.5l-4.2,21.5h15.6c9.8,0,16.6,1.7,20.3,5.1c3.7,3.4,4.8,9,3.3,16.6l-7.3,37.7h-17.8l7-35.8c0.8-4.1,0.5-6.9-0.9-8.4
	s-4.3-2.2-8.8-2.2h-14l-9,46.4h-17.5L399.7,198.6z M491.4,232.9c6.7,0,11.2,1.2,13.4,3.7c2.2,2.5,2.8,6.7,1.6,12.7
	c-1.2,6.3-3.6,10.7-7.1,13.4c-3.5,2.7-8.8,4-15.9,4h-10.8l6.6-33.9H491.4z M448.3,301.1H466l4.2-21.5h15.2c6.7,0,12.2-0.7,16.5-2.1
	s8.2-3.7,11.8-7.1c2.9-2.7,5.3-5.7,7.2-9c1.8-3.3,3.1-6.9,3.9-10.8c1.9-9.6,0.5-17.1-4.2-22.4c-4.7-5.4-12.2-8.1-22.4-8.1h-34
	L448.3,301.1z"/>
<path class="st6" d="M156.3,29.9c10.2-4.8,25.6-6.6,40.5,0.7c9.9,4.9,20.5,17.9,23.3,19.8c9.1-0.3,64.5,8.9,65.2,57
	c17.4-22,32.5-33.1,57-46c13.4-5.1,21.3-6.5,29.1,0.2c5.2,7.4,0.5,10.8,5.1,16.9c4.9,6.5,12.8,3.7,37.1,3.4
	c23.8-0.4,35.1,6.2,41.6-1.1c5.1-5.8,0.5-12.6,6.2-18c7.9-7.5,26.8-3.7,29.2,3.4c1.6,4.4,1.5,12.2,10.1,12.9
	c14.9,1.2,21.1,4.4,24.2,7.3c3.7,3.5,2.6,8.7,1.1,12.9c-4.4,12.6-13.1,9-16.3,21.4c-0.9,20.2,14.9,26.3,18.8,43
	c2.5,13.8-3.1,16.8-4.8,34c-1,21.6,10.5,31.4,7.9,54.2c-3.3,23.3-12.9,34.3-44.5,36.3c-17.4,0.4-6.9,10.9-14.5,20.8
	c-7.7,5.5-25-2.6-34.5,2.5c-6.5,3.5-2.8,10.4-13.1,16.8c-11.4,0.3-36.2-0.3-85.6-0.3c-7.5-6.3-0.6-14.9-13.9-17.8
	c-7.6-3.8-65.3-1.8-74.3,2.1c-6.7,4.2-4.4,4.6-11,11c-13,12.5-41.9,8.1-43.6,7.6c-5.8-1.9-16.8-6.3-23-16.9
	c-4.7-8.1-3.7-15.6,2.2-52.3c4.6-28.5,8.1-48.3-11.2-42.7c-20.7,4.6-21.8,7.5-28.7,7.3c-11.8-0.3-22.8-9-28.1-17.4
	c-6.4-10.1-1.8-15-8.4-21.4c-7.2-6.9-15.2-3.5-24.2-11.8c-3.7-3.5-5.5-7-7.3-10.7c-8.5-17.2-6.4-35.5-5.1-46.1
	c2.3-18.1,7.9-30.7,12.9-42.2c5.3-11.9,9.6-21.3,19.1-30.9c3.4-3.4,10.5-9,20.8-14.6C128.2,24.5,148.8,28.6,156.3,29.9z"/>
<g>
	<path class="st3" d="M364,319.8h-24.3l12.7-15.1c0.5-0.6,1-1.2,1.5-1.9c0.5-0.6,1-1.3,1.4-2c0.4-0.7,0.8-1.4,1-2
		c0.3-0.7,0.4-1.3,0.4-2c0-1.4-0.4-2.6-1.4-3.4c-0.9-0.9-2.1-1.3-3.4-1.3c-1.5,0-2.9,0.4-4.1,1.2c-1.2,0.8-2.3,1.8-3.1,3l-4.5-4.4
		c1.5-1.8,3.1-3.3,5-4.3c1.8-1,4.1-1.5,6.9-1.5c1.4,0,2.8,0.2,4.2,0.6c1.3,0.4,2.5,1.1,3.6,1.9c1,0.8,1.9,1.9,2.5,3.2
		c0.6,1.3,1,2.7,1,4.4c0,1.1-0.2,2.1-0.5,3.1c-0.3,1-0.7,1.9-1.2,2.9c-0.5,0.9-1.1,1.8-1.8,2.7c-0.7,0.9-1.4,1.8-2.1,2.7l-4.7,5.9
		H364V319.8z M391.6,303.3c0,2-0.3,4-0.9,5.9s-1.5,3.7-2.7,5.3c-1.2,1.6-2.7,2.8-4.4,3.8c-1.7,1-3.7,1.4-5.8,1.4s-4.1-0.5-5.8-1.4
		c-1.7-1-3.2-2.2-4.3-3.8c-1.2-1.6-2.1-3.3-2.8-5.3c-0.6-2-1-4-1-5.9c0-2.1,0.3-4.1,0.9-6.2c0.6-2,1.5-3.9,2.6-5.5
		c1.1-1.6,2.6-3,4.3-4c1.7-1,3.7-1.5,6-1.5s4.3,0.5,6,1.5c1.7,1,3.2,2.4,4.3,4c1.2,1.7,2,3.5,2.7,5.6
		C391.3,299.2,391.6,301.3,391.6,303.3L391.6,303.3z M385,303.6c0-1.1-0.1-2.4-0.4-3.7c-0.2-1.3-0.6-2.6-1.2-3.8
		c-0.6-1.2-1.3-2.1-2.2-2.9c-0.9-0.8-2.1-1.2-3.5-1.2c-1.3,0-2.5,0.4-3.4,1.2c-0.9,0.8-1.7,1.8-2.3,2.9c-0.6,1.2-1,2.5-1.3,3.8
		c-0.2,1.4-0.4,2.6-0.4,3.7c0,1.1,0.1,2.3,0.4,3.6c0.3,1.3,0.7,2.4,1.3,3.5c0.6,1.1,1.3,2,2.2,2.7c0.9,0.7,2,1,3.3,1
		c1.3,0,2.4-0.4,3.3-1c0.9-0.7,1.7-1.6,2.2-2.7c0.6-1.1,1-2.2,1.3-3.5C384.9,305.9,385,304.7,385,303.6L385,303.6z M403.3,319.9
		h-6.4v-25.9l-5.4,2.1v-5.4l11.8-4.4V319.9z"/>
	<g>
		<path d="M408.1,313.9c0.9,0.2,1.6,0.1,2.9,0c2.1-0.1,4.2-0.8,5.7-2c1.9-1.4,3.1-3.6,3.6-6l-0.1-0.1c-1.3,1.5-3.2,2.4-5.8,2.4
			c-4.9,0-8.9-3.8-8.9-10.2c0-6.4,4.5-11.8,10.8-11.8c7.4,0,10.9,6.4,10.9,14.1c0,6.8-1.9,11.8-5,15c-2.7,2.9-6.5,4.4-11,4.6
			c-1.1,0.1-2.3,0.1-3,0V313.9z M416.1,291.7c-2.3,0-3.9,2.3-3.9,5.7c0,2.8,1.4,5.2,4.1,5.2c1.9,0,3.1-1,3.8-2.1
			c0.2-0.5,0.3-1,0.3-2C420.4,295.2,419.2,291.7,416.1,291.7L416.1,291.7z"/>
	</g>
</g>
</svg>
